<svg width="323" height="227" viewBox="0 0 323 227" fill="none" xmlns="http://www.w3.org/2000/svg">
<path d="M275.932 90C275.932 41.4042 236.314 2 187.432 2C138.549 2 98.9316 41.4042 98.9316 90C98.9316 130.777 126.827 165.084 164.687 175.066L164.177 177.001C125.468 166.795 96.9316 131.715 96.9316 90C96.9316 40.2891 137.455 0 187.432 0C237.408 0 277.932 40.2891 277.932 90C277.932 130.063 251.611 164.005 215.237 175.672L214.626 173.768C250.202 162.357 275.932 129.163 275.932 90Z" fill="#2090F0"/>
<path d="M238.932 84C238.932 87.3137 236.245 90 232.932 90C229.618 90 226.932 87.3137 226.932 84C226.932 80.6863 229.618 78 232.932 78C236.245 78 238.932 80.6863 238.932 84Z" fill="#2090F0"/>
<path d="M170.932 84C170.932 87.3137 168.245 90 164.932 90C161.618 90 158.932 87.3137 158.932 84C158.932 80.6863 161.618 78 164.932 78C168.245 78 170.932 80.6863 170.932 84Z" fill="#2090F0"/>
<path d="M194.095 104.347C202.314 104.445 209.72 109.329 213.048 116.845L243.7 186.076H316.873C323.196 186.076 325.218 194.593 319.57 197.435L260.806 227.009L260.549 226.999L50.3476 219.444C46.0545 219.29 42.2443 216.65 40.5908 212.685L0.859346 117.413C-2.18394 110.115 3.23546 102.086 11.1416 102.18L194.095 104.347ZM11.1181 104.18C4.64938 104.103 0.215042 110.673 2.70505 116.643L42.4365 211.916C43.7894 215.16 46.9072 217.32 50.4199 217.446L259.011 224.942L242.138 187.486L242.136 187.48L211.22 117.654C208.209 110.854 201.507 106.436 194.071 106.347L11.1181 104.18ZM261.066 224.637L318.671 195.649C322.436 193.754 321.088 188.076 316.873 188.076H244.598L261.066 224.637Z" fill="#2090F0"/>
<path d="M156.933 183.952C157.018 180.361 154.332 176.575 148.868 173.503C143.49 170.48 135.871 168.448 127.297 168.244C118.724 168.041 111.017 169.709 105.501 172.473C99.8967 175.282 97.0347 178.937 96.9495 182.528C96.8642 186.119 99.5495 189.906 105.014 192.977C110.392 196 118.011 198.032 126.585 198.236L126.537 200.235C108.869 199.816 94.7272 191.867 94.95 182.481C95.1729 173.094 109.676 165.825 127.344 166.245C145.013 166.664 159.155 174.613 158.932 184C158.709 193.386 144.206 200.655 126.537 200.235L126.585 198.236C135.158 198.439 142.865 196.771 148.381 194.007C153.985 191.198 156.847 187.543 156.933 183.952Z" fill="#2090F0"/>
<path d="M220.914 185.472C220.999 181.881 218.314 178.094 212.849 175.022C207.471 171.999 199.852 169.967 191.278 169.764C182.705 169.56 174.998 171.229 169.483 173.993C163.878 176.802 161.016 180.456 160.931 184.048C160.846 187.639 163.531 191.425 168.996 194.497C174.374 197.52 181.993 199.552 190.566 199.755L190.519 201.755C172.851 201.335 158.709 193.386 158.931 184C159.154 174.614 173.658 167.345 191.326 167.764C208.994 168.184 223.136 176.133 222.913 185.519C222.691 194.905 208.187 202.174 190.519 201.755L190.566 199.755C199.14 199.959 206.847 198.291 212.362 195.526C217.967 192.718 220.829 189.063 220.914 185.472Z" fill="#2090F0"/>
<path d="M231.125 105.438L235.407 92.9786C235.725 92.0561 237.04 92.0872 237.313 93.0237L239.884 101.837C239.915 101.945 239.965 102.047 240.03 102.138L242.22 105.205C242.357 105.396 242.421 105.628 242.403 105.862L242.002 111.077C241.962 111.598 241.528 112 241.005 112H236.871C236.591 112 236.323 111.883 236.134 111.676L231.333 106.439C231.086 106.168 231.005 105.784 231.125 105.438Z" fill="#C7E5FF"/>
<path d="M234.935 92.8156C235.411 91.432 237.385 91.4792 237.794 92.884L240.365 101.697C240.38 101.751 240.405 101.802 240.438 101.848L242.627 104.914C242.832 105.201 242.93 105.55 242.903 105.901L242.501 111.115C242.441 111.897 241.79 112.5 241.006 112.5H236.872C236.451 112.5 236.05 112.324 235.766 112.014L230.965 106.777C230.594 106.371 230.474 105.795 230.653 105.276L234.935 92.8156ZM236.833 93.1633C236.697 92.6956 236.04 92.68 235.881 93.1408L231.598 105.601C231.539 105.774 231.579 105.966 231.703 106.101L236.503 111.338C236.598 111.441 236.732 111.5 236.872 111.5H241.006C241.267 111.5 241.484 111.299 241.504 111.038L241.906 105.824C241.915 105.707 241.882 105.591 241.814 105.495L239.623 102.429C239.526 102.292 239.452 102.139 239.405 101.977L236.833 93.1633Z" fill="#2090F0"/>
<path d="M230.037 125.088L233.05 113.374C233.327 112.295 234.896 112.41 235.013 113.519L235.397 117.167C235.419 117.383 235.512 117.585 235.66 117.744L242.046 124.586C242.285 124.843 242.373 125.206 242.276 125.543L240.639 131.274C240.516 131.704 240.124 132 239.677 132H234.49C234.143 132 233.821 131.819 233.639 131.524L230.154 125.861C230.012 125.63 229.97 125.351 230.037 125.088Z" fill="#C7E5FF"/>
<path d="M232.566 113.25C232.982 111.631 235.335 111.804 235.51 113.466L235.894 117.114V117.115C235.905 117.223 235.952 117.324 236.026 117.403L242.411 124.245C242.77 124.629 242.902 125.174 242.757 125.68L241.119 131.412C240.935 132.055 240.348 132.499 239.678 132.5H234.491C233.97 132.5 233.486 132.229 233.213 131.786L229.729 126.124C229.515 125.777 229.452 125.358 229.553 124.963L232.566 113.25ZM234.516 113.571C234.458 113.017 233.673 112.959 233.534 113.499L230.522 125.212C230.488 125.344 230.509 125.484 230.58 125.599L234.065 131.261C234.156 131.409 234.317 131.5 234.491 131.5H239.678C239.901 131.499 240.097 131.352 240.158 131.137L241.796 125.406C241.844 125.237 241.8 125.056 241.681 124.927L235.295 118.086C235.073 117.847 234.934 117.543 234.9 117.219L234.516 113.571Z" fill="#2090F0"/>
<path d="M183.199 136.319C189.725 129.292 200.717 128.898 207.729 135.442L208.614 136.268L207.249 137.731L206.363 136.904C200.161 131.116 190.437 131.464 184.664 137.68L183.199 136.319Z" fill="#2090F0"/>
</svg>
