<svg width="88" height="88" viewBox="0 0 88 88" fill="none" xmlns="http://www.w3.org/2000/svg">
<mask id="mask0_32933_31300" style="mask-type:alpha" maskUnits="userSpaceOnUse" x="5" y="13" width="62" height="62">
<path d="M66.2139 44.0011C66.2139 60.6879 52.6866 74.2151 35.9999 74.2151C19.3132 74.2151 5.78589 60.6879 5.78589 44.0011C5.78589 27.3144 19.3132 13.7871 35.9999 13.7871C52.6866 13.7871 66.2139 27.3144 66.2139 44.0011Z" fill="#70ACDE"/>
</mask>
<g mask="url(#mask0_32933_31300)">
<circle cx="35.926" cy="44.1711" r="34.5324" fill="#FF8F8F"/>
<ellipse cx="30.8824" cy="39.454" rx="2.03618" ry="5.66299" fill="#1F1F22"/>
<path d="M32.8476 39.8625C32.8476 38.108 32.455 36.623 31.9251 35.6517C31.6615 35.1687 31.3997 34.8774 31.2015 34.7237C31.0167 34.5805 30.9275 34.5834 30.9187 34.5834C30.9099 34.5834 30.8207 34.5805 30.636 34.7237C30.4378 34.8774 30.1759 35.1687 29.9124 35.6517C29.3825 36.623 28.9898 38.108 28.9898 39.8625C28.9898 41.617 29.3825 43.102 29.9124 44.0733C30.1759 44.5563 30.4378 44.8476 30.636 45.0013C30.8208 45.1445 30.9099 45.1416 30.9187 45.1416V47.2347L30.7116 47.2252C28.6551 47.034 27.0064 44.0115 26.9022 40.242L26.8967 39.8625C26.8967 35.7909 28.6975 32.4902 30.9187 32.4902C33.14 32.4902 34.9407 35.7909 34.9407 39.8625L34.9353 40.242C34.8275 44.1373 33.0706 47.2347 30.9187 47.2347V45.1416C30.9275 45.1416 31.0167 45.1445 31.2015 45.0013C31.3997 44.8476 31.6615 44.5563 31.9251 44.0733C32.455 43.102 32.8476 41.617 32.8476 39.8625Z" fill="#1F1F22"/>
<path d="M27.0637 31.1195C27.0637 32.0668 26.2958 32.8347 25.3485 32.8347C24.4012 32.8347 23.6333 32.0668 23.6333 31.1195C23.6333 30.1722 24.4012 29.4043 25.3485 29.4043C26.2958 29.4043 27.0637 30.1722 27.0637 31.1195Z" fill="#1F1F22"/>
<path d="M38.5349 31.1195C38.5349 32.0668 37.767 32.8347 36.8197 32.8347C35.8724 32.8347 35.1045 32.0668 35.1045 31.1195C35.1045 30.1722 35.8724 29.4043 36.8197 29.4043C37.767 29.4043 38.5349 30.1722 38.5349 31.1195Z" fill="#1F1F22"/>
</g>
<path d="M80.0239 21.5983L75.0185 21.0682C74.4777 21.011 73.9768 21.1233 73.5917 21.348C72.6439 21.9008 72.8224 23.261 72.7718 24.3571L72.0164 40.7144C71.9658 41.8105 71.899 43.054 72.7348 43.7649C73.7229 44.6052 75.402 44.8164 76.587 44.2534C77.6068 43.769 77.8728 42.5173 78.1105 41.4136L81.4644 25.8448C81.7439 24.5477 82.4904 22.9195 81.4456 22.1015C81.1276 21.8525 80.6648 21.666 80.0239 21.5983Z" fill="#1F1F22"/>
<path d="M77.1482 51.6716C77.0364 53.3861 75.5558 54.6854 73.8413 54.5735C72.1267 54.4617 70.8275 52.9811 70.9393 51.2666C71.0512 49.552 72.5318 48.2528 74.2463 48.3646C75.9608 48.4765 77.2601 49.9571 77.1482 51.6716Z" fill="#1F1F22"/>
</svg>
