<svg width="24" height="24" viewBox="0 0 24 24" fill="none" xmlns="http://www.w3.org/2000/svg">
<path d="M13.504 4.12654C13.504 4.98709 12.8064 5.68471 11.9459 5.68471C11.0853 5.68471 10.3877 4.98709 10.3877 4.12654C10.3877 3.26598 11.0853 2.56836 11.9459 2.56836C12.8064 2.56836 13.504 3.26598 13.504 4.12654Z" fill="#188FFF"/>
<path d="M11.9475 4.12651C15.0696 4.12676 17.6135 6.59842 17.7306 9.69198C17.7306 9.69358 17.732 9.69487 17.7336 9.69487C17.7352 9.69487 17.7366 9.6962 17.7366 9.69785V13.074C17.7366 13.6934 18.4545 14.188 18.802 14.7007L19.8137 16.1949C20.263 16.8588 19.7872 17.7552 18.9856 17.7554H5.01488C4.213 17.7554 3.73727 16.8589 4.18675 16.1949L5.19749 14.7007C5.52726 14.2139 6.15941 13.7477 6.15941 13.1597V9.69785C6.15941 9.6962 6.16074 9.69487 6.16239 9.69487C6.164 9.69487 6.16531 9.69358 6.16538 9.69198C6.28249 6.59842 8.82533 4.12672 11.9475 4.12651Z" fill="#188FFF"/>
<path d="M14.3515 19.0197C14.3514 20.3518 13.2715 21.4318 11.9394 21.4318C10.6905 21.4317 9.66343 20.4822 9.54002 19.2658L9.52733 19.0197H14.3515Z" fill="#188FFF"/>
<rect x="15" y="4.54297" width="6" height="6" rx="3" fill="#FF2727"/>
<rect x="15" y="4.54297" width="6" height="6" rx="3" stroke="white"/>
</svg>
