<svg width="22" height="20" viewBox="0 0 22 20" fill="none" xmlns="http://www.w3.org/2000/svg">
<path d="M9.72619 1.04978C10.3131 0.105804 11.687 0.105804 12.2739 1.04978L14.6984 4.94929C14.9049 5.28142 15.233 5.51976 15.6127 5.61352L20.0705 6.71437C21.1497 6.98086 21.5742 8.28749 20.8578 9.13738L17.8984 12.6483C17.6463 12.9473 17.521 13.3329 17.5492 13.723L17.8798 18.3029C17.9598 19.4116 16.8483 20.2191 15.8186 19.8004L11.5651 18.0707C11.2028 17.9234 10.7973 17.9234 10.435 18.0707L6.18145 19.8004C5.15177 20.2191 4.04029 19.4116 4.12031 18.3029L4.4509 13.723C4.47906 13.3329 4.35375 12.9473 4.10169 12.6483L1.14226 9.13738C0.425855 8.28749 0.850406 6.98086 1.92954 6.71437L6.38742 5.61352C6.76711 5.51976 7.09516 5.28142 7.30166 4.94929L9.72619 1.04978Z" fill="#E0E0E5"/>
</svg>
