<svg width="14" height="14" viewBox="0 0 14 14" fill="none" xmlns="http://www.w3.org/2000/svg">
<path d="M6.25686 1.7792C6.59923 1.22855 7.40066 1.22855 7.74302 1.7792L9.15733 4.05391C9.27779 4.24766 9.46916 4.38669 9.69064 4.44138L12.2911 5.08355C12.9206 5.239 13.1682 6.0012 12.7503 6.49697L11.024 8.54498C10.8769 8.71942 10.8039 8.94438 10.8203 9.17192L11.0131 11.8435C11.0598 12.4902 10.4114 12.9613 9.81079 12.7171L7.32954 11.7081C7.11821 11.6222 6.88167 11.6222 6.67034 11.7081L4.1891 12.7171C3.58845 12.9613 2.94008 12.4902 2.98677 11.8435L3.17961 9.17192C3.19604 8.94438 3.12294 8.71942 2.97591 8.54498L1.24957 6.49697C0.831668 6.0012 1.07932 5.239 1.70882 5.08355L4.30925 4.44138C4.53073 4.38669 4.72209 4.24766 4.84255 4.05391L6.25686 1.7792Z" fill="#FFCB02"/>
</svg>
