<svg width="24" height="24" viewBox="0 0 24 24" fill="none" xmlns="http://www.w3.org/2000/svg">
<path d="M13.5038 4.12641C13.5038 4.98697 12.8062 5.68459 11.9456 5.68459C11.0851 5.68459 10.3874 4.98697 10.3874 4.12641C10.3874 3.26586 11.0851 2.56824 11.9456 2.56824C12.8062 2.56824 13.5038 3.26586 13.5038 4.12641Z" fill="#707177"/>
<path d="M11.9472 4.12638C15.0694 4.12664 17.6133 6.5983 17.7303 9.69186C17.7304 9.69346 17.7317 9.69474 17.7333 9.69474C17.735 9.69474 17.7363 9.69608 17.7363 9.69773V13.0739C17.7363 13.6933 18.4543 14.1878 18.8017 14.7006L19.8135 16.1947C20.2627 16.8587 19.7869 17.755 18.9853 17.7553H5.01463C4.21275 17.7553 3.73703 16.8588 4.18651 16.1947L5.19725 14.7006C5.52701 14.2138 6.15916 13.7476 6.15916 13.1596V9.69773C6.15916 9.69608 6.1605 9.69474 6.16215 9.69474C6.16375 9.69474 6.16507 9.69346 6.16513 9.69186C6.28224 6.5983 8.82509 4.1266 11.9472 4.12638Z" fill="#707177"/>
<path d="M14.3513 19.0196C14.3511 20.3516 13.2713 21.4317 11.9392 21.4317C10.6903 21.4316 9.66318 20.482 9.53978 19.2657L9.52708 19.0196H14.3513Z" fill="#707177"/>
</svg>
