<svg width="98" height="16" viewBox="0 0 98 16" fill="none" xmlns="http://www.w3.org/2000/svg">
<path d="M13.0652 0.454545V15H10.4089L4.08079 5.84517H3.97425V15H0.89897V0.454545H3.59783L9.87624 9.60227H10.0041V0.454545H13.0652ZM28.9725 7.72727C28.9725 9.31345 28.6718 10.6629 28.0705 11.7756C27.4739 12.8883 26.6595 13.7382 25.6273 14.3253C24.5998 14.9077 23.4445 15.1989 22.1614 15.1989C20.8688 15.1989 19.7087 14.9053 18.6813 14.3182C17.6538 13.7311 16.8418 12.8812 16.2452 11.7685C15.6486 10.6558 15.3503 9.30871 15.3503 7.72727C15.3503 6.1411 15.6486 4.79167 16.2452 3.67898C16.8418 2.56629 17.6538 1.71875 18.6813 1.13636C19.7087 0.549242 20.8688 0.255681 22.1614 0.255681C23.4445 0.255681 24.5998 0.549242 25.6273 1.13636C26.6595 1.71875 27.4739 2.56629 28.0705 3.67898C28.6718 4.79167 28.9725 6.1411 28.9725 7.72727ZM25.8546 7.72727C25.8546 6.69981 25.7007 5.83333 25.3929 5.12784C25.0899 4.42235 24.6614 3.88731 24.1074 3.52273C23.5534 3.15814 22.9048 2.97585 22.1614 2.97585C21.418 2.97585 20.7694 3.15814 20.2154 3.52273C19.6614 3.88731 19.2305 4.42235 18.9228 5.12784C18.6197 5.83333 18.4682 6.69981 18.4682 7.72727C18.4682 8.75473 18.6197 9.62121 18.9228 10.3267C19.2305 11.0322 19.6614 11.5672 20.2154 11.9318C20.7694 12.2964 21.418 12.4787 22.1614 12.4787C22.9048 12.4787 23.5534 12.2964 24.1074 11.9318C24.6614 11.5672 25.0899 11.0322 25.3929 10.3267C25.7007 9.62121 25.8546 8.75473 25.8546 7.72727ZM31.2505 0.454545H35.0431L39.0488 10.2273H39.2193L43.225 0.454545H47.0176V15H44.0346V5.53267H43.9139L40.1497 14.929H38.1184L34.3542 5.49716H34.2335V15H31.2505V0.454545ZM52.0584 15H48.763L53.7843 0.454545H57.7473L62.7615 15H59.4661L55.8226 3.77841H55.709L52.0584 15ZM51.8525 9.28267H59.6365V11.6832H51.8525V9.28267ZM69.6685 15H64.5123V0.454545H69.7111C71.1742 0.454545 72.4337 0.745738 73.4895 1.32812C74.5454 1.90578 75.3574 2.73674 75.9256 3.82102C76.4985 4.9053 76.785 6.20265 76.785 7.71307C76.785 9.22822 76.4985 10.5303 75.9256 11.6193C75.3574 12.7083 74.5407 13.544 73.4753 14.1264C72.4147 14.7088 71.1458 15 69.6685 15ZM67.5875 12.3651H69.5407C70.4498 12.3651 71.2144 12.2041 71.8347 11.8821C72.4597 11.5554 72.9284 11.0511 73.2409 10.3693C73.5582 9.68277 73.7168 8.79735 73.7168 7.71307C73.7168 6.63826 73.5582 5.75994 73.2409 5.07812C72.9284 4.39631 72.4621 3.89441 71.8418 3.57244C71.2215 3.25047 70.4569 3.08949 69.5478 3.08949H67.5875V12.3651ZM82.1383 0.454545V15H79.063V0.454545H82.1383ZM87.1756 15H83.8801L88.9015 0.454545H92.8645L97.8787 15H94.5833L90.9398 3.77841H90.8262L87.1756 15ZM86.9696 9.28267H94.7537V11.6832H86.9696V9.28267Z" fill="#188FFF"/>
</svg>
