<svg width="16" height="17" viewBox="0 0 16 17" fill="none" xmlns="http://www.w3.org/2000/svg">
<path d="M7.15112 2.53302C7.5424 1.90371 8.45831 1.90371 8.84959 2.53302L10.4659 5.1327C10.6036 5.35411 10.8223 5.51301 11.0754 5.57552L14.0474 6.30942C14.7668 6.48708 15.0498 7.35816 14.5722 7.92476L12.5993 10.2653C12.4312 10.4647 12.3477 10.7218 12.3664 10.9818L12.5868 14.0351C12.6402 14.7742 11.8992 15.3126 11.2127 15.0334L8.37704 13.8803C8.13552 13.7821 7.86519 13.7821 7.62367 13.8803L4.78796 15.0334C4.10151 15.3126 3.36052 14.7742 3.41387 14.0351L3.63426 10.9818C3.65303 10.7218 3.56949 10.4647 3.40145 10.2653L1.4285 7.92476C0.950896 7.35816 1.23393 6.48708 1.95335 6.30942L4.92527 5.57552C5.1784 5.51301 5.3971 5.35411 5.53477 5.1327L7.15112 2.53302Z" fill="#FFCB02"/>
</svg>
